<?xml version="1.0" standalone="no"?>
<!DOCTYPE svg PUBLIC "-//W3C//DTD SVG 20010904//EN"
 "http://www.w3.org/TR/2001/REC-SVG-20010904/DTD/svg10.dtd">
<svg version="1.0" xmlns="http://www.w3.org/2000/svg"
 width="702.000000pt" height="198.000000pt" viewBox="0 0 702.000000 198.000000"
 preserveAspectRatio="xMidYMid meet">

<g transform="translate(0.000000,198.000000) scale(0.100000,-0.100000)"
fill="#000000" stroke="none">
<path d="M0 990 l0 -990 3510 0 3510 0 0 990 0 990 -3510 0 -3510 0 0 -990z
m566 233 c0 -18 3 -36 7 -39 13 -13 7 -42 -9 -48 -9 -3 -31 -6 -50 -6 l-34 0
0 66 0 65 43 -3 c40 -3 42 -5 43 -35z m54 27 c0 -5 -4 -10 -10 -10 -5 0 -10 5
-10 10 0 6 5 10 10 10 6 0 10 -4 10 -10z m530 0 c0 -5 -4 -10 -10 -10 -5 0
-10 5 -10 10 0 6 5 10 10 10 6 0 10 -4 10 -10z m100 -54 l0 -64 -37 1 -38 2 0
45 c0 43 2 45 28 45 19 -1 27 4 27 17 0 10 5 18 10 18 6 0 10 -28 10 -64z
m262 47 c10 -9 18 -30 18 -46 0 -43 -25 -67 -72 -67 l-38 0 0 65 0 65 37 0
c20 0 45 -7 55 -17z m148 -48 c0 -37 -4 -65 -10 -65 -6 0 -10 28 -10 65 0 37
4 65 10 65 6 0 10 -28 10 -65z m237 -2 c-2 -16 -4 -5 -4 22 0 28 2 40 4 28 2
-13 2 -35 0 -50z m103 37 c0 -28 3 -30 35 -30 32 0 35 2 35 30 0 17 5 30 10
30 6 0 10 -28 10 -65 0 -64 -16 -91 -22 -37 -3 23 -8 27 -33 27 -25 0 -30 -4
-33 -27 -6 -54 -22 -27 -22 37 0 37 4 65 10 65 6 0 10 -13 10 -30z m370 20 c0
-5 -4 -10 -10 -10 -5 0 -10 5 -10 10 0 6 5 10 10 10 6 0 10 -4 10 -10z m600
-55 l0 -65 -34 0 c-35 0 -46 12 -46 54 0 27 18 46 42 46 10 0 18 7 18 15 0 8
5 15 10 15 6 0 10 -28 10 -65z m2334 53 c-3 -4 -19 -8 -35 -8 -17 0 -28 4 -24
9 3 5 19 9 35 9 16 -1 27 -5 24 -10z m-2535 -26 c-13 -5 -11 -66 4 -81 10 -10
8 -12 -8 -9 -16 2 -21 12 -23 46 -3 34 -7 42 -18 38 -9 -3 -18 -6 -20 -6 -2 0
-4 -18 -4 -40 0 -22 -4 -40 -10 -40 -5 0 -10 22 -10 49 0 45 2 49 26 49 14 0
30 4 36 10 7 7 14 7 23 -1 7 -7 9 -13 4 -15z m900 0 c-13 -5 -11 -66 3 -80 9
-9 8 -12 -5 -12 -11 0 -18 12 -22 38 -4 20 -8 41 -9 47 -5 18 17 33 30 21 7
-6 8 -12 3 -14z m500 0 c-13 -5 -11 -66 3 -80 9 -9 8 -12 -5 -12 -11 0 -18 12
-22 38 -4 20 -8 41 -9 47 -5 18 17 33 30 21 7 -6 8 -12 3 -14z m200 0 c-13 -5
-11 -66 3 -80 9 -9 8 -12 -5 -12 -11 0 -18 12 -22 38 -4 20 -8 41 -9 47 -5 18
17 33 30 21 7 -6 8 -12 3 -14z m490 0 c-13 -5 -11 -66 3 -80 9 -9 8 -12 -5
-12 -11 0 -18 12 -22 38 -4 20 -8 41 -9 47 -5 18 17 33 30 21 7 -6 8 -12 3
-14z m-4239 -42 c0 -27 -4 -50 -10 -50 -5 0 -10 23 -10 50 0 28 5 50 10 50 6
0 10 -22 10 -50z m88 38 c21 -21 13 -38 -18 -38 -19 0 -30 -5 -30 -14 0 -22
19 -30 36 -15 16 13 30 6 19 -10 -8 -15 -48 -14 -63 1 -27 27 -8 88 28 88 9 0
21 -5 28 -12z m110 -40 c2 -27 -1 -48 -7 -48 -5 0 -11 19 -13 43 -2 29 -8 42
-18 42 -10 0 -16 -13 -18 -42 -4 -59 -22 -54 -22 6 l0 49 38 -1 c37 -2 37 -2
40 -49z m44 11 l14 -42 12 42 c7 22 17 41 23 41 6 0 8 -6 5 -12 -2 -7 -10 -30
-17 -50 -7 -21 -17 -38 -24 -38 -6 0 -17 17 -24 38 -8 20 -16 43 -18 50 -3 6
-1 12 5 12 6 0 17 -19 24 -41z m136 29 c21 -21 13 -38 -18 -38 -19 0 -30 -5
-30 -14 0 -22 19 -30 36 -15 16 13 30 6 19 -10 -8 -15 -48 -14 -63 1 -27 27
-8 88 28 88 9 0 21 -5 28 -12z m110 -40 c2 -27 -1 -48 -7 -48 -5 0 -11 19 -13
43 -2 29 -8 42 -18 42 -10 0 -16 -13 -18 -42 -4 -59 -22 -54 -22 6 l0 49 38
-1 c37 -2 37 -2 40 -49z m42 2 c0 -27 -4 -50 -10 -50 -5 0 -10 23 -10 50 0 28
5 50 10 50 6 0 10 -22 10 -50z m188 41 c19 -11 11 -71 -10 -85 -25 -15 -52 4
-56 38 -6 45 30 70 66 47z m235 -28 l14 -37 12 37 c7 20 17 37 22 37 12 0 12
4 -12 -60 -24 -64 -36 -80 -57 -80 -13 0 -12 3 3 14 17 12 18 19 9 53 -6 21
-15 46 -19 56 -4 9 -3 17 3 17 5 0 16 -17 25 -37z m175 25 c5 -7 11 -30 14
-50 l4 -37 -41 2 c-36 2 -40 5 -40 27 0 20 6 26 28 28 28 3 35 16 16 28 -6 3
-16 1 -22 -5 -17 -17 -31 -13 -17 4 15 18 44 19 58 3z m110 -40 c2 -27 -1 -48
-7 -48 -5 0 -11 19 -13 43 -2 29 -8 42 -18 42 -10 0 -16 -13 -18 -42 -4 -59
-22 -54 -22 6 l0 49 38 -1 c37 -2 37 -2 40 -49z m320 40 c5 -7 11 -30 14 -50
l4 -37 -41 2 c-36 2 -40 5 -40 27 0 20 6 26 28 28 28 3 35 16 16 28 -6 3 -16
1 -22 -5 -17 -17 -31 -13 -17 4 15 18 44 19 58 3z m100 -6 c3 -11 0 -12 -16
-3 -27 14 -32 14 -32 -3 0 -8 12 -17 26 -20 19 -5 25 -12 22 -29 -2 -17 -10
-22 -32 -22 -16 0 -31 6 -34 13 -3 11 -1 11 17 1 15 -10 23 -11 32 -2 8 8 3
15 -20 27 -30 16 -39 35 -24 50 12 11 56 2 61 -12z m92 -32 c0 -27 -4 -50 -10
-50 -5 0 -10 23 -10 50 0 28 5 50 10 50 6 0 10 -22 10 -50z m98 -2 c2 -27 -1
-48 -7 -48 -5 0 -11 19 -13 43 -2 29 -8 42 -18 42 -10 0 -16 -13 -18 -42 -4
-59 -22 -54 -22 6 l0 49 38 -1 c37 -2 37 -2 40 -49z m90 34 c3 -11 0 -12 -16
-3 -27 14 -32 14 -32 -3 0 -8 12 -17 26 -20 19 -5 25 -12 22 -29 -2 -17 -10
-22 -32 -22 -16 0 -31 6 -34 13 -3 11 -1 11 17 1 15 -10 23 -11 32 -2 8 8 3
15 -20 27 -30 16 -39 35 -24 50 12 11 56 2 61 -12z m90 6 c21 -21 13 -38 -18
-38 -19 0 -30 -5 -30 -14 0 -22 19 -30 36 -15 16 13 30 6 19 -10 -8 -15 -48
-14 -63 1 -27 27 -8 88 28 88 9 0 21 -5 28 -12z m210 0 c5 -7 11 -30 14 -50
l4 -37 -41 2 c-36 2 -40 5 -40 27 0 20 6 26 28 28 28 3 35 16 16 28 -6 3 -16
1 -22 -5 -17 -17 -31 -13 -17 4 15 18 44 19 58 3z m212 -13 c14 -36 -3 -75
-33 -75 -30 0 -47 18 -47 50 0 52 62 72 80 25z m140 10 c8 -9 9 -15 2 -15 -6
0 -13 4 -17 10 -11 18 -35 -2 -35 -30 0 -28 24 -48 35 -30 4 6 11 10 17 10 7
0 6 -6 -2 -15 -27 -32 -70 -11 -70 35 0 46 43 67 70 35z m100 -10 c14 -36 -3
-75 -33 -75 -30 0 -47 18 -47 50 0 52 62 72 80 25z m55 5 c-8 -9 -15 -31 -15
-48 0 -18 -4 -32 -10 -32 -5 0 -10 22 -10 49 0 45 2 49 25 49 24 0 25 -2 10
-18z m60 0 c-8 -9 -15 -31 -15 -48 0 -18 -4 -32 -10 -32 -5 0 -10 22 -10 49 0
45 2 49 25 49 24 0 25 -2 10 -18z m106 -7 c8 -21 5 -23 -26 -23 -24 0 -35 -5
-35 -14 0 -19 21 -26 44 -14 14 8 17 7 14 -4 -6 -18 -46 -23 -64 -8 -17 15
-18 62 -2 78 19 19 60 10 69 -15z m89 12 c8 -9 9 -15 2 -15 -6 0 -13 4 -17 10
-11 18 -35 -2 -35 -30 0 -28 24 -48 35 -30 4 6 11 10 17 10 7 0 6 -6 -2 -15
-27 -32 -70 -11 -70 35 0 46 43 67 70 35z m150 -36 l6 -46 -41 1 c-36 1 -40 4
-40 26 0 20 6 26 28 28 28 3 35 16 17 27 -6 4 -17 1 -25 -5 -8 -7 -15 -8 -15
-3 0 17 14 24 40 21 22 -3 26 -9 30 -49z m148 -1 c2 -29 -1 -48 -7 -48 -6 0
-11 20 -11 46 0 59 -24 55 -28 -4 -4 -53 -22 -55 -22 -3 0 42 -16 63 -31 40
-5 -8 -9 -29 -9 -46 0 -18 -4 -33 -10 -33 -5 0 -10 22 -10 49 l0 49 63 -2 62
-1 3 -47z m103 25 c8 -21 5 -23 -26 -23 -24 0 -35 -5 -35 -14 0 -19 21 -26 44
-14 14 8 17 7 14 -4 -6 -18 -46 -23 -64 -8 -17 15 -18 62 -2 78 19 19 60 10
69 -15z m97 -25 c2 -29 -1 -48 -7 -48 -6 0 -11 20 -11 45 0 32 -4 45 -14 45
-17 0 -26 -22 -26 -61 0 -16 -4 -29 -10 -29 -5 0 -10 22 -10 49 l0 49 38 -1
c37 -2 37 -2 40 -49z m153 25 c8 -21 5 -23 -26 -23 -24 0 -35 -5 -35 -14 0
-19 21 -26 44 -14 14 8 17 7 14 -4 -6 -18 -46 -23 -64 -8 -17 15 -18 62 -2 78
19 19 60 10 69 -15z m141 -15 c2 -30 8 -43 18 -43 10 0 16 13 18 43 4 59 22
53 22 -8 l0 -50 -34 0 c-38 0 -46 12 -46 66 0 49 18 42 22 -8z m198 27 c8 -9
9 -15 2 -15 -6 0 -13 4 -17 10 -11 18 -35 -2 -35 -30 0 -28 24 -48 35 -30 4 6
11 10 17 10 7 0 6 -6 -2 -15 -27 -32 -70 -11 -70 35 0 46 43 67 70 35z m100
-10 c14 -36 -3 -75 -33 -75 -30 0 -47 18 -47 50 0 52 62 72 80 25z m98 -27 c2
-29 -1 -48 -7 -48 -6 0 -11 20 -11 45 0 32 -4 45 -14 45 -17 0 -26 -22 -26
-61 0 -16 -4 -29 -10 -29 -5 0 -10 22 -10 49 l0 49 38 -1 c37 -2 37 -2 40 -49z
m107 32 c-8 -9 -15 -31 -15 -48 0 -18 -4 -32 -10 -32 -5 0 -10 22 -10 49 0 45
2 49 25 49 24 0 25 -2 10 -18z m105 -31 l6 -46 -41 1 c-36 1 -40 4 -40 26 0
20 6 26 28 28 28 3 35 16 17 27 -6 4 -17 1 -25 -5 -8 -7 -15 -8 -15 -3 0 17
14 24 40 21 22 -3 26 -9 30 -49z m88 31 c5 -13 3 -13 -11 -2 -9 8 -21 11 -27
7 -16 -10 -12 -25 9 -25 29 0 47 -26 31 -46 -16 -18 -61 -15 -68 4 -3 11 0 12
17 3 22 -12 41 -7 41 10 0 5 -6 9 -13 9 -25 0 -51 26 -44 44 8 21 58 18 65 -4z
m103 -7 c8 -21 5 -23 -26 -23 -24 0 -35 -5 -35 -14 0 -19 21 -26 44 -14 14 8
17 7 14 -4 -6 -18 -46 -23 -64 -8 -17 15 -18 62 -2 78 19 19 60 10 69 -15z
m97 -25 c2 -29 -1 -48 -7 -48 -6 0 -11 20 -11 45 0 25 -4 45 -8 45 -18 0 -32
-26 -32 -57 0 -18 -4 -33 -10 -33 -5 0 -10 22 -10 49 l0 49 38 -1 c37 -2 37
-2 40 -49z m102 1 l6 -46 -41 1 c-36 1 -40 4 -40 26 0 20 6 26 28 28 28 3 35
16 17 27 -6 4 -17 1 -25 -5 -8 -7 -15 -8 -15 -3 0 17 14 24 40 21 22 -3 26 -9
30 -49z m50 41 c0 -5 -4 -10 -10 -10 -5 0 -10 5 -10 10 0 6 5 10 10 10 6 0 10
-4 10 -10z m-3560 -80 c0 -5 -5 -10 -11 -10 -5 0 -7 5 -4 10 3 6 8 10 11 10 2
0 4 -4 4 -10z m3560 0 c0 -5 -4 -10 -10 -10 -5 0 -10 5 -10 10 0 6 5 10 10 10
6 0 10 -4 10 -10z m-4960 -202 l0 -32 33 32 c41 40 61 43 23 3 l-27 -29 31
-36 c20 -23 27 -36 18 -36 -8 0 -24 14 -37 30 -24 34 -41 32 -41 -6 0 -13 -4
-24 -10 -24 -6 0 -10 28 -10 65 0 37 4 65 10 65 6 0 10 -14 10 -32z m170 -21
c0 -55 -12 -77 -41 -77 -22 0 -44 26 -29 35 5 3 10 1 10 -4 0 -6 9 -11 20 -11
17 0 20 7 20 41 0 28 -6 46 -17 55 -16 12 -15 13 10 14 26 0 27 -2 27 -53z
m110 38 c14 -17 7 -19 -20 -5 -21 11 -53 3 -47 -13 2 -6 19 -16 38 -22 37 -13
52 -50 27 -66 -21 -13 -64 -10 -77 5 -10 12 -6 13 29 9 32 -5 40 -2 40 10 0 9
-15 20 -34 27 -38 12 -52 35 -35 56 15 19 63 18 79 -1z m122 -2 c10 -9 18 -30
18 -46 0 -43 -25 -67 -72 -67 l-38 0 0 65 0 65 37 0 c20 0 45 -7 55 -17z m128
7 c0 -5 -16 -10 -35 -10 -31 0 -35 -3 -35 -25 0 -22 5 -25 38 -26 l37 -2 -35
-6 c-26 -4 -36 -12 -38 -28 -7 -49 -22 -20 -22 42 l0 65 45 0 c25 0 45 -4 45
-10z m118 -2 c17 -17 15 -33 -2 -19 -8 7 -27 11 -43 9 -25 -3 -28 -7 -28 -43
0 -39 1 -40 38 -43 27 -2 37 1 37 12 0 8 -10 17 -22 19 -17 3 -14 5 10 6 26 1
32 -3 32 -19 0 -38 -68 -54 -102 -23 -22 20 -23 70 -1 95 18 20 63 24 81 6z
m122 4 c0 -4 -9 -25 -20 -47 -11 -22 -20 -47 -20 -57 0 -10 -4 -18 -10 -18
-15 0 -12 20 10 68 l19 42 -29 0 c-17 0 -30 5 -30 10 0 6 18 10 40 10 22 0 40
-4 40 -8z m86 0 c6 -4 11 -31 12 -60 1 -58 -9 -69 -52 -58 -23 6 -25 11 -24
59 1 52 10 67 38 67 8 0 20 -4 26 -8z m102 -4 c15 -15 16 -72 2 -99 -13 -23
-55 -25 -64 -4 -6 16 9 21 19 5 8 -13 35 -1 35 15 0 8 -12 15 -27 17 -20 2
-29 9 -31 26 -6 42 37 69 66 40z m122 2 c0 -5 -16 -10 -35 -10 -31 0 -35 -3
-35 -25 0 -22 5 -25 38 -26 l37 -2 -35 -6 c-26 -4 -36 -12 -38 -28 -7 -49 -22
-20 -22 42 l0 65 45 0 c25 0 45 -4 45 -10z m118 -2 c17 -17 15 -33 -2 -19 -8
7 -27 11 -43 9 -25 -3 -28 -7 -28 -43 0 -39 1 -40 38 -43 27 -2 37 1 37 12 0
8 -10 17 -22 19 -17 3 -14 5 10 6 26 1 32 -3 32 -19 0 -38 -68 -54 -102 -23
-22 20 -23 70 -1 95 18 20 63 24 81 6z m132 -3 c14 -17 7 -19 -20 -5 -21 11
-53 3 -47 -13 2 -6 19 -16 38 -22 37 -13 52 -50 27 -66 -21 -13 -64 -10 -77 5
-10 12 -6 13 29 9 32 -5 40 -2 40 10 0 9 -15 20 -34 27 -38 12 -52 35 -35 56
15 19 63 18 79 -1z m122 -2 c10 -9 18 -30 18 -46 0 -43 -25 -67 -72 -67 l-38
0 0 65 0 65 37 0 c20 0 45 -7 55 -17z m128 7 c0 -5 -16 -10 -35 -10 -31 0 -35
-3 -35 -25 0 -22 5 -25 38 -26 l37 -2 -35 -6 c-26 -4 -36 -12 -38 -28 -7 -49
-22 -20 -22 42 l0 65 45 0 c25 0 45 -4 45 -10z m100 2 c0 -4 -9 -25 -20 -47
-11 -22 -20 -47 -20 -57 0 -10 -4 -18 -10 -18 -15 0 -12 20 10 68 l19 42 -29
0 c-17 0 -30 5 -30 10 0 6 18 10 40 10 22 0 40 -4 40 -8z m86 0 c6 -4 11 -31
12 -60 1 -58 -9 -69 -52 -58 -23 6 -25 11 -24 59 1 52 10 67 38 67 8 0 20 -4
26 -8z"/>
<path d="M500 1219 c0 -15 5 -20 22 -17 34 5 37 38 4 38 -20 0 -26 -5 -26 -21z"/>
<path d="M507 1183 c-17 -16 -5 -33 23 -33 19 0 30 5 30 14 0 20 -39 34 -53
19z"/>
<path d="M1196 1213 c-3 -4 -6 -18 -6 -33 0 -32 7 -41 26 -33 8 3 14 18 14 33
0 26 -21 46 -34 33z"/>
<path d="M1440 1195 c0 -46 0 -46 33 -43 30 3 32 5 32 43 0 38 -2 40 -32 43
-33 3 -33 3 -33 -43z"/>
<path d="M2917 1214 c-10 -10 -9 -62 1 -68 16 -10 33 12 30 39 -3 28 -18 42
-31 29z"/>
<path d="M667 1214 c-13 -13 -7 -24 14 -24 11 0 19 5 17 12 -5 14 -22 21 -31
12z"/>
<path d="M957 1214 c-13 -13 -7 -24 14 -24 11 0 19 5 17 12 -5 14 -22 21 -31
12z"/>
<path d="M1294 1207 c-9 -25 0 -62 16 -62 10 0 15 10 15 34 0 36 -21 54 -31
28z"/>
<path d="M1703 1165 c-3 -9 -3 -19 1 -22 7 -7 36 16 36 28 0 15 -30 10 -37 -6z"/>
<path d="M2133 1165 c-3 -9 -3 -19 1 -22 7 -7 36 16 36 28 0 15 -30 10 -37 -6z"/>
<path d="M2607 1214 c-13 -13 -7 -24 14 -24 11 0 19 5 17 12 -5 14 -22 21 -31
12z"/>
<path d="M2813 1165 c-3 -9 -3 -19 1 -22 7 -7 36 16 36 28 0 15 -30 10 -37 -6z"/>
<path d="M3014 1207 c-9 -25 0 -62 15 -62 22 0 38 32 25 52 -14 23 -33 28 -40
10z"/>
<path d="M3254 1207 c-9 -25 0 -62 15 -62 22 0 38 32 25 52 -14 23 -33 28 -40
10z"/>
<path d="M3477 1213 c-14 -13 -6 -23 19 -23 22 0 25 2 14 15 -14 16 -23 19
-33 8z"/>
<path d="M3715 1170 c-3 -5 -4 -14 0 -20 8 -13 35 -1 35 16 0 16 -26 19 -35 4z"/>
<path d="M3967 1213 c-14 -13 -6 -23 19 -23 22 0 25 2 14 15 -14 16 -23 19
-33 8z"/>
<path d="M4217 1213 c-14 -13 -6 -23 19 -23 22 0 25 2 14 15 -14 16 -23 19
-33 8z"/>
<path d="M4654 1207 c-9 -25 0 -62 15 -62 22 0 38 32 25 52 -14 23 -33 28 -40
10z"/>
<path d="M4965 1170 c-3 -5 -4 -14 0 -20 8 -13 35 -1 35 16 0 16 -26 19 -35 4z"/>
<path d="M5157 1213 c-14 -13 -6 -23 19 -23 22 0 25 2 14 15 -14 16 -23 19
-33 8z"/>
<path d="M5355 1170 c-3 -5 -4 -14 0 -20 8 -13 35 -1 35 16 0 16 -26 19 -35 4z"/>
<path d="M830 905 c0 -46 0 -46 33 -43 30 3 32 5 32 43 0 38 -2 40 -32 43 -33
3 -33 3 -33 -43z"/>
<path d="M1314 949 c-10 -17 13 -36 27 -22 12 12 4 33 -11 33 -5 0 -12 -5 -16
-11z"/>
<path d="M1314 896 c-8 -22 3 -49 19 -43 6 2 12 14 12 27 0 27 -22 39 -31 16z"/>
<path d="M1412 928 c2 -13 10 -23 18 -23 8 0 16 10 18 23 3 17 -2 22 -18 22
-16 0 -21 -5 -18 -22z"/>
<path d="M1880 905 c0 -46 0 -46 33 -43 30 3 32 5 32 43 0 38 -2 40 -32 43
-33 3 -33 3 -33 -43z"/>
<path d="M2224 949 c-10 -17 13 -36 27 -22 12 12 4 33 -11 33 -5 0 -12 -5 -16
-11z"/>
<path d="M2224 896 c-8 -22 3 -49 19 -43 6 2 12 14 12 27 0 27 -22 39 -31 16z"/>
</g>
</svg>
