<?xml version="1.0" standalone="no"?>
<!DOCTYPE svg PUBLIC "-//W3C//DTD SVG 20010904//EN"
 "http://www.w3.org/TR/2001/REC-SVG-20010904/DTD/svg10.dtd">
<svg version="1.0" xmlns="http://www.w3.org/2000/svg"
 width="513.000000pt" height="372.000000pt" viewBox="0 0 513.000000 372.000000"
 preserveAspectRatio="xMidYMid meet">

<g transform="translate(0.000000,372.000000) scale(0.100000,-0.100000)"
fill="#000000" stroke="none">
<path d="M0 1860 l0 -1860 2565 0 2565 0 0 1860 0 1860 -2565 0 -2565 0 0
-1860z m2700 1035 c0 -8 -7 -15 -15 -15 -8 0 -15 7 -15 15 0 8 7 15 15 15 8 0
15 -7 15 -15z m-440 -65 l0 -70 45 0 c33 0 45 -4 45 -15 0 -12 -13 -15 -60
-15 l-60 0 0 85 c0 69 3 85 15 85 12 0 15 -14 15 -70z m224 8 c33 -47 4 -108
-51 -108 -55 0 -85 70 -46 112 23 26 78 24 97 -4z m156 -51 c0 -51 -4 -75 -17
-89 -19 -22 -62 -23 -89 -4 -18 14 -18 15 -1 21 9 4 24 2 32 -5 16 -13 35 -6
35 14 0 9 -9 12 -25 8 -37 -7 -55 14 -55 62 0 54 12 65 71 64 l49 0 0 -71z
m60 8 c0 -51 -3 -65 -15 -65 -12 0 -15 14 -15 65 0 51 3 65 15 65 12 0 15 -14
15 -65z m70 55 c0 -6 8 -5 20 2 35 22 55 0 58 -66 2 -44 0 -56 -12 -56 -11 0
-16 13 -18 48 -3 39 -6 47 -23 47 -17 0 -20 -8 -23 -47 -2 -32 -8 -48 -17 -48
-9 0 -14 19 -17 65 -3 57 -1 65 15 65 9 0 17 -5 17 -10z m-2200 -439 c0 -83
56 -75 63 9 l4 45 1 -50 c2 -55 -10 -75 -43 -75 -12 0 -26 5 -33 12 -14 14
-16 108 -2 108 6 0 10 -22 10 -49z m155 9 c4 -7 -2 -9 -19 -4 -34 8 -35 -13 0
-26 16 -7 24 -16 22 -28 -4 -20 -45 -29 -62 -12 -8 9 -4 10 17 5 21 -6 27 -4
27 9 0 9 -6 16 -14 16 -18 0 -39 27 -31 40 8 13 52 13 60 0z m85 -9 c15 -29
13 -31 -21 -31 -20 0 -29 -4 -26 -12 2 -7 14 -12 26 -11 13 2 20 -1 16 -7 -17
-27 -65 -2 -65 35 0 43 50 62 70 26z m57 7 c-11 -6 -17 -22 -17 -43 0 -19 -4
-35 -10 -35 -5 0 -10 20 -10 44 0 40 2 44 27 44 21 0 23 -2 10 -10z m43 2 c0
-5 -4 -10 -10 -10 -5 0 -10 5 -10 10 0 6 5 10 10 10 6 0 10 -4 10 -10z m0 -70
c0 -5 -4 -10 -10 -10 -5 0 -10 5 -10 10 0 6 5 10 10 10 6 0 10 -4 10 -10z
m3828 -122 c17 -17 17 -309 0 -326 -17 -17 -4159 -17 -4176 0 -17 17 -17 309
0 326 17 17 4159 17 4176 0z m-4108 -583 c20 -24 3 -55 -31 -55 -24 0 -29 -4
-29 -25 0 -14 -4 -25 -10 -25 -6 0 -10 27 -10 60 l0 60 34 0 c18 0 39 -7 46
-15z m600 -43 l0 -59 -32 1 c-32 1 -33 3 -33 41 0 36 3 40 28 43 15 2 27 9 27
18 0 8 2 14 5 14 3 0 5 -26 5 -58z m-510 9 c5 -11 10 -28 10 -38 0 -13 8 -19
30 -20 36 -3 40 18 8 32 -13 6 -23 17 -23 25 0 18 43 26 59 10 8 -9 4 -10 -16
-5 -36 9 -38 -12 -2 -25 16 -7 24 -16 22 -28 -3 -14 -15 -17 -75 -19 -56 -1
-73 2 -77 14 -8 20 11 43 36 43 11 0 16 5 13 10 -4 6 -16 8 -27 4 -14 -4 -18
-2 -14 5 11 18 44 13 56 -8z m199 -15 l9 -31 7 33 c9 38 29 37 33 -1 4 -33 22
-26 22 9 0 13 5 24 10 24 13 0 13 -4 -2 -51 -14 -48 -24 -49 -37 -6 l-9 32 -7
-33 c-9 -40 -25 -37 -39 9 -9 27 -17 35 -38 37 -35 4 -36 -15 -2 -28 16 -7 24
-16 22 -28 -4 -20 -45 -29 -62 -12 -8 9 -4 10 17 5 21 -6 27 -4 27 9 0 9 -6
16 -14 16 -18 0 -39 26 -31 39 3 6 24 10 46 9 35 -1 40 -5 48 -32z m172 13
c16 -31 -3 -69 -35 -69 -28 0 -41 27 -32 66 8 31 50 33 67 3z m51 9 c-7 -7
-12 -27 -12 -45 0 -18 -4 -33 -10 -33 -5 0 -10 20 -10 45 0 40 3 45 22 45 17
0 19 -3 10 -12z m-452 -354 c0 -8 -7 -14 -15 -14 -15 0 -21 21 -9 33 10 9 24
-2 24 -19z m42 -6 c-9 -9 -15 -9 -24 0 -10 10 -10 15 2 22 20 12 38 -6 22 -22z
m48 6 c0 -8 -7 -14 -15 -14 -15 0 -21 21 -9 33 10 9 24 -2 24 -19z m50 0 c0
-8 -7 -14 -15 -14 -15 0 -21 21 -9 33 10 9 24 -2 24 -19z m42 -6 c-9 -9 -15
-9 -24 0 -10 10 -10 15 2 22 20 12 38 -6 22 -22z m48 6 c0 -8 -7 -14 -15 -14
-15 0 -21 21 -9 33 10 9 24 -2 24 -19z m50 0 c0 -8 -7 -14 -15 -14 -15 0 -21
21 -9 33 10 9 24 -2 24 -19z m42 -6 c-9 -9 -15 -9 -24 0 -10 10 -10 15 2 22
20 12 38 -6 22 -22z m48 6 c0 -8 -7 -14 -15 -14 -15 0 -21 21 -9 33 10 9 24
-2 24 -19z m50 0 c0 -8 -7 -14 -15 -14 -15 0 -21 21 -9 33 10 9 24 -2 24 -19z
m1290 -553 c0 -36 3 -40 28 -44 22 -3 20 -4 -10 -6 l-38 -1 0 45 c0 25 5 45
10 45 6 0 10 -18 10 -39z m115 -16 c0 -25 -4 -31 -26 -33 -29 -3 -44 18 -33
50 4 14 13 18 32 16 23 -2 27 -8 27 -33z m73 -12 c-2 -37 -7 -49 -22 -51 -10
-2 -23 2 -30 8 -8 9 -6 11 12 5 12 -3 22 -2 22 3 0 5 -9 12 -20 15 -13 3 -20
14 -20 29 0 31 7 38 37 38 22 0 24 -3 21 -47z m29 -5 c-2 -13 -4 -5 -4 17 -1
22 1 32 4 23 2 -10 2 -28 0 -40z m81 15 c2 -19 -1 -33 -7 -33 -6 0 -11 14 -11
30 0 40 -17 38 -29 -2 l-9 -33 -1 38 c-1 36 1 38 27 35 22 -2 28 -8 30 -35z"/>
<path d="M2423 2833 c-18 -6 -17 -70 1 -76 19 -8 36 12 36 44 0 27 -15 40 -37
32z"/>
<path d="M2559 2818 c-8 -15 -8 -27 0 -44 15 -34 41 -21 41 21 0 40 -25 54
-41 23z"/>
<path d="M767 2414 c-13 -13 -7 -24 14 -24 11 0 19 5 17 12 -5 14 -22 21 -31
12z"/>
<path d="M661 2094 c0 -11 3 -14 6 -6 3 7 2 16 -1 19 -3 4 -6 -2 -5 -13z"/>
<path d="M850 2100 c-10 -6 -11 -10 -2 -10 7 0 12 -13 12 -29 0 -16 -6 -32
-12 -34 -7 -3 3 -5 22 -5 19 0 29 2 23 5 -8 2 -13 22 -13 44 0 41 -5 45 -30
29z"/>
<path d="M1005 2100 c-3 -5 -1 -10 4 -10 19 0 13 -58 -6 -63 -10 -3 -2 -5 17
-5 19 0 29 2 23 5 -8 2 -13 22 -13 44 0 37 -12 51 -25 29z"/>
<path d="M684 2076 c-11 -29 0 -51 26 -51 21 0 25 5 25 30 0 24 -5 31 -23 33
-13 2 -24 -3 -28 -12z m46 -21 c0 -25 -23 -35 -35 -15 -10 16 2 40 20 40 9 0
15 -9 15 -25z"/>
<path d="M761 2051 c1 -28 3 -30 6 -11 3 14 9 30 14 36 5 7 3 11 -6 11 -11 0
-15 -11 -14 -36z"/>
<path d="M928 2073 c12 -2 30 -2 40 0 9 3 -1 5 -23 4 -22 0 -30 -2 -17 -4z"/>
<path d="M1068 2053 c6 -2 18 -2 25 0 6 3 1 5 -13 5 -14 0 -19 -2 -12 -5z"/>
<path d="M1118 2053 c7 -3 16 -2 19 1 4 3 -2 6 -13 5 -11 0 -14 -3 -6 -6z"/>
<path d="M1198 2053 c7 -3 16 -2 19 1 4 3 -2 6 -13 5 -11 0 -14 -3 -6 -6z"/>
<path d="M928 2043 c12 -2 30 -2 40 0 9 3 -1 5 -23 4 -22 0 -30 -2 -17 -4z"/>
<path d="M570 1625 c0 -22 4 -26 23 -23 14 2 22 10 22 23 0 13 -8 21 -22 23
-19 3 -23 -1 -23 -23z"/>
<path d="M1187 1614 c-10 -11 -9 -52 2 -59 17 -10 32 30 18 49 -7 9 -16 14
-20 10z"/>
<path d="M675 1580 c-11 -17 5 -32 21 -19 8 6 14 15 14 20 0 12 -27 11 -35 -1z"/>
<path d="M1044 1606 c-9 -23 0 -51 16 -51 10 0 15 10 15 29 0 32 -21 47 -31
22z"/>
<path d="M2474 705 c-3 -8 -3 -19 1 -25 11 -18 25 -11 25 15 0 27 -17 34 -26
10z"/>
<path d="M2550 695 c0 -14 5 -25 10 -25 6 0 10 11 10 25 0 14 -4 25 -10 25 -5
0 -10 -11 -10 -25z"/>
</g>
</svg>
